<?xml version="1.0" encoding="UTF-8" standalone="no"?><svg xmlns="http://www.w3.org/2000/svg" xmlns:xlink="http://www.w3.org/1999/xlink" contentScriptType="application/ecmascript" contentStyleType="text/css" height="975px" preserveAspectRatio="none" style="width:1235px;height:975px;background:#DDDDDD;" version="1.1" viewBox="0 0 1235 975" width="1235px" zoomAndPan="magnify"><defs><filter height="300%" id="f1wm3q31zrih5f" width="300%" x="-1" y="-1"><feGaussianBlur result="blurOut" stdDeviation="2.0"/><feColorMatrix in="blurOut" result="blurOut2" type="matrix" values="0 0 0 0 0 0 0 0 0 0 0 0 0 0 0 0 0 0 .4 0"/><feOffset dx="4.0" dy="4.0" in="blurOut2" result="blurOut3"/><feBlend in="SourceGraphic" in2="blurOut3" mode="normal"/></filter></defs><g><rect fill="#FFFFFF" filter="url(#f1wm3q31zrih5f)" height="87.3984" style="stroke:#A80036;stroke-width:1.0;" width="10" x="294.5" y="162.5625"/><rect fill="#FFFFFF" filter="url(#f1wm3q31zrih5f)" height="87.3984" style="stroke:#A80036;stroke-width:1.0;" width="10" x="294.5" y="279.0938"/><rect fill="#FFFFFF" filter="url(#f1wm3q31zrih5f)" height="169.7969" style="stroke:#A80036;stroke-width:1.0;" width="10" x="294.5" y="395.625"/><rect fill="#FFFFFF" filter="url(#f1wm3q31zrih5f)" height="29.1328" style="stroke:#A80036;stroke-width:1.0;" width="10" x="294.5" y="914.6875"/><rect fill="#FFFFFF" filter="url(#f1wm3q31zrih5f)" height="29.1328" style="stroke:#A80036;stroke-width:1.0;" width="10" x="560.5" y="191.6953"/><rect fill="#FFFFFF" filter="url(#f1wm3q31zrih5f)" height="29.1328" style="stroke:#A80036;stroke-width:1.0;" width="10" x="560.5" y="308.2266"/><rect fill="#FFFFFF" filter="url(#f1wm3q31zrih5f)" height="111.5313" style="stroke:#A80036;stroke-width:1.0;" width="10" x="560.5" y="424.7578"/><rect fill="#FFFFFF" filter="url(#f1wm3q31zrih5f)" height="305.3281" style="stroke:#A80036;stroke-width:1.0;" width="10" x="560.5" y="609.3594"/><rect fill="#FFFFFF" filter="url(#f1wm3q31zrih5f)" height="53.2656" style="stroke:#A80036;stroke-width:1.0;" width="10" x="811.5" y="453.8906"/><rect fill="#FFFFFF" filter="url(#f1wm3q31zrih5f)" height="43.9375" style="stroke:#A80036;stroke-width:1.0;" width="10" x="811.5" y="565.4219"/><rect fill="#FFFFFF" filter="url(#f1wm3q31zrih5f)" height="29.1328" style="stroke:#A80036;stroke-width:1.0;" width="10" x="811.5" y="755.0234"/><rect fill="#FFFFFF" filter="url(#f1wm3q31zrih5f)" height="29.1328" style="stroke:#A80036;stroke-width:1.0;" width="10" x="811.5" y="856.4219"/><rect fill="#FFFFFF" filter="url(#f1wm3q31zrih5f)" height="87.3984" style="stroke:#A80036;stroke-width:1.0;" width="10" x="894" y="638.4922"/><rect fill="#FFFFFF" filter="url(#f1wm3q31zrih5f)" height="29.1328" style="stroke:#A80036;stroke-width:1.0;" width="10" x="1157" y="667.625"/><rect fill="#DDDDDD" filter="url(#f1wm3q31zrih5f)" height="482.9297" style="stroke:#000000;stroke-width:2.0;" width="1208" x="10" y="468.8906"/><rect fill="#DDDDDD" height="378.3984" style="stroke:none;stroke-width:1.0;" width="1208" x="10" y="573.4219"/><line style="stroke:#A80036;stroke-width:1.0;stroke-dasharray:5.0,5.0;" x1="38" x2="38" y1="88.2969" y2="968.8203"/><line style="stroke:#A80036;stroke-width:1.0;stroke-dasharray:5.0,5.0;" x1="299" x2="299" y1="88.2969" y2="968.8203"/><line style="stroke:#A80036;stroke-width:1.0;stroke-dasharray:5.0,5.0;" x1="565.5" x2="565.5" y1="88.2969" y2="968.8203"/><line style="stroke:#A80036;stroke-width:1.0;stroke-dasharray:5.0,5.0;" x1="816.5" x2="816.5" y1="88.2969" y2="968.8203"/><line style="stroke:#A80036;stroke-width:1.0;stroke-dasharray:5.0,5.0;" x1="898.5" x2="898.5" y1="88.2969" y2="968.8203"/><line style="stroke:#A80036;stroke-width:1.0;stroke-dasharray:5.0,5.0;" x1="1162" x2="1162" y1="88.2969" y2="968.8203"/><text fill="#000000" font-family="sans-serif" font-size="14" lengthAdjust="spacing" textLength="31" x="20" y="84.9951">User</text><ellipse cx="38.5" cy="15" fill="#FEFECE" filter="url(#f1wm3q31zrih5f)" rx="8" ry="8" style="stroke:#A80036;stroke-width:2.0;"/><path d="M38.5,23 L38.5,50 M25.5,31 L51.5,31 M38.5,50 L25.5,65 M38.5,50 L51.5,65 " fill="none" filter="url(#f1wm3q31zrih5f)" style="stroke:#A80036;stroke-width:2.0;"/><rect fill="#FEFECE" filter="url(#f1wm3q31zrih5f)" height="30.2969" style="stroke:#A80036;stroke-width:1.5;" width="91" x="254" y="49"/><rect fill="#FEFECE" filter="url(#f1wm3q31zrih5f)" height="30.2969" style="stroke:#A80036;stroke-width:1.5;" width="91" x="250" y="53"/><text fill="#000000" font-family="sans-serif" font-size="14" lengthAdjust="spacing" textLength="77" x="257" y="72.9951">FlexupApp</text><text fill="#000000" font-family="sans-serif" font-size="14" lengthAdjust="spacing" textLength="70" x="527.5" y="84.9951">FlexupAPI</text><ellipse cx="565.5" cy="56" fill="#FEFECE" filter="url(#f1wm3q31zrih5f)" rx="12" ry="12" style="stroke:#A80036;stroke-width:2.0;"/><polygon fill="#A80036" points="561.5,44,567.5,39,565.5,44,567.5,49,561.5,44" style="stroke:#A80036;stroke-width:1.0;"/><text fill="#000000" font-family="sans-serif" font-size="14" lengthAdjust="spacing" textLength="68" x="779.5" y="84.9951">FlexupDB</text><path d="M798.5,36 C798.5,26 816.5,26 816.5,26 C816.5,26 834.5,26 834.5,36 L834.5,62 C834.5,72 816.5,72 816.5,72 C816.5,72 798.5,72 798.5,62 L798.5,36 " fill="#FEFECE" filter="url(#f1wm3q31zrih5f)" style="stroke:#000000;stroke-width:1.5;"/><path d="M798.5,36 C798.5,46 816.5,46 816.5,46 C816.5,46 834.5,46 834.5,36 " fill="none" style="stroke:#000000;stroke-width:1.5;"/><text fill="#000000" font-family="sans-serif" font-size="14" lengthAdjust="spacing" textLength="65" x="863.5" y="84.9951">Keycloak</text><ellipse cx="899" cy="56" fill="#FEFECE" filter="url(#f1wm3q31zrih5f)" rx="12" ry="12" style="stroke:#A80036;stroke-width:2.0;"/><line style="stroke:#A80036;stroke-width:2.0;" x1="887" x2="911" y1="70" y2="70"/><text fill="#000000" font-family="sans-serif" font-size="14" lengthAdjust="spacing" textLength="86" x="1116" y="84.9951">KeycloakDB</text><path d="M1144,36 C1144,26 1162,26 1162,26 C1162,26 1180,26 1180,36 L1180,62 C1180,72 1162,72 1162,72 C1162,72 1144,72 1144,62 L1144,36 " fill="#FEFECE" filter="url(#f1wm3q31zrih5f)" style="stroke:#000000;stroke-width:1.5;"/><path d="M1144,36 C1144,46 1162,46 1162,46 C1162,46 1180,46 1180,36 " fill="none" style="stroke:#000000;stroke-width:1.5;"/><rect fill="#FFFFFF" filter="url(#f1wm3q31zrih5f)" height="87.3984" style="stroke:#A80036;stroke-width:1.0;" width="10" x="294.5" y="162.5625"/><rect fill="#FFFFFF" filter="url(#f1wm3q31zrih5f)" height="87.3984" style="stroke:#A80036;stroke-width:1.0;" width="10" x="294.5" y="279.0938"/><rect fill="#FFFFFF" filter="url(#f1wm3q31zrih5f)" height="169.7969" style="stroke:#A80036;stroke-width:1.0;" width="10" x="294.5" y="395.625"/><rect fill="#FFFFFF" filter="url(#f1wm3q31zrih5f)" height="29.1328" style="stroke:#A80036;stroke-width:1.0;" width="10" x="294.5" y="914.6875"/><rect fill="#FFFFFF" filter="url(#f1wm3q31zrih5f)" height="29.1328" style="stroke:#A80036;stroke-width:1.0;" width="10" x="560.5" y="191.6953"/><rect fill="#FFFFFF" filter="url(#f1wm3q31zrih5f)" height="29.1328" style="stroke:#A80036;stroke-width:1.0;" width="10" x="560.5" y="308.2266"/><rect fill="#FFFFFF" filter="url(#f1wm3q31zrih5f)" height="111.5313" style="stroke:#A80036;stroke-width:1.0;" width="10" x="560.5" y="424.7578"/><rect fill="#FFFFFF" filter="url(#f1wm3q31zrih5f)" height="305.3281" style="stroke:#A80036;stroke-width:1.0;" width="10" x="560.5" y="609.3594"/><rect fill="#FFFFFF" filter="url(#f1wm3q31zrih5f)" height="53.2656" style="stroke:#A80036;stroke-width:1.0;" width="10" x="811.5" y="453.8906"/><rect fill="#FFFFFF" filter="url(#f1wm3q31zrih5f)" height="43.9375" style="stroke:#A80036;stroke-width:1.0;" width="10" x="811.5" y="565.4219"/><rect fill="#FFFFFF" filter="url(#f1wm3q31zrih5f)" height="29.1328" style="stroke:#A80036;stroke-width:1.0;" width="10" x="811.5" y="755.0234"/><rect fill="#FFFFFF" filter="url(#f1wm3q31zrih5f)" height="29.1328" style="stroke:#A80036;stroke-width:1.0;" width="10" x="811.5" y="856.4219"/><rect fill="#FFFFFF" filter="url(#f1wm3q31zrih5f)" height="87.3984" style="stroke:#A80036;stroke-width:1.0;" width="10" x="894" y="638.4922"/><rect fill="#FFFFFF" filter="url(#f1wm3q31zrih5f)" height="29.1328" style="stroke:#A80036;stroke-width:1.0;" width="10" x="1157" y="667.625"/><rect fill="#EEEEEE" filter="url(#f1wm3q31zrih5f)" height="3" style="stroke:#EEEEEE;stroke-width:1.0;" width="1228" x="0" y="118.8633"/><line style="stroke:#000000;stroke-width:1.0;" x1="0" x2="1228" y1="118.8633" y2="118.8633"/><line style="stroke:#000000;stroke-width:1.0;" x1="0" x2="1228" y1="121.8633" y2="121.8633"/><rect fill="#EEEEEE" filter="url(#f1wm3q31zrih5f)" height="23.1328" style="stroke:#000000;stroke-width:2.0;" width="164" x="532" y="108.2969"/><text fill="#000000" font-family="sans-serif" font-size="13" font-weight="bold" lengthAdjust="spacing" textLength="150" x="538" y="124.3638">Création utilisateur</text><polygon fill="#A80036" points="282.5,158.5625,292.5,162.5625,282.5,166.5625,286.5,162.5625" style="stroke:#A80036;stroke-width:1.0;"/><line style="stroke:#A80036;stroke-width:1.0;" x1="38.5" x2="288.5" y1="162.5625" y2="162.5625"/><text fill="#000000" font-family="sans-serif" font-size="13" lengthAdjust="spacing" textLength="177" x="45.5" y="157.4966">Demande accès application</text><polygon fill="#A80036" points="548.5,187.6953,558.5,191.6953,548.5,195.6953,552.5,191.6953" style="stroke:#A80036;stroke-width:1.0;"/><line style="stroke:#A80036;stroke-width:1.0;" x1="304.5" x2="554.5" y1="191.6953" y2="191.6953"/><text fill="#000000" font-family="sans-serif" font-size="13" lengthAdjust="spacing" textLength="203" x="311.5" y="186.6294">Demande formulaire connexion</text><polygon fill="#A80036" points="315.5,216.8281,305.5,220.8281,315.5,224.8281,311.5,220.8281" style="stroke:#A80036;stroke-width:1.0;"/><line style="stroke:#A80036;stroke-width:1.0;" x1="309.5" x2="564.5" y1="220.8281" y2="220.8281"/><text fill="#000000" font-family="sans-serif" font-size="13" lengthAdjust="spacing" textLength="199" x="321.5" y="215.7622">Retourne formulaire connexion</text><polygon fill="#A80036" points="49.5,245.9609,39.5,249.9609,49.5,253.9609,45.5,249.9609" style="stroke:#A80036;stroke-width:1.0;"/><line style="stroke:#A80036;stroke-width:1.0;" x1="43.5" x2="298.5" y1="249.9609" y2="249.9609"/><text fill="#000000" font-family="sans-serif" font-size="13" lengthAdjust="spacing" textLength="199" x="55.5" y="244.895">Retourne formulaire connexion</text><polygon fill="#A80036" points="282.5,275.0938,292.5,279.0938,282.5,283.0938,286.5,279.0938" style="stroke:#A80036;stroke-width:1.0;"/><line style="stroke:#A80036;stroke-width:1.0;" x1="38.5" x2="288.5" y1="279.0938" y2="279.0938"/><text fill="#000000" font-family="sans-serif" font-size="13" lengthAdjust="spacing" textLength="236" x="45.5" y="274.0278">Demande formulaire enregistrement</text><polygon fill="#A80036" points="548.5,304.2266,558.5,308.2266,548.5,312.2266,552.5,308.2266" style="stroke:#A80036;stroke-width:1.0;"/><line style="stroke:#A80036;stroke-width:1.0;" x1="304.5" x2="554.5" y1="308.2266" y2="308.2266"/><text fill="#000000" font-family="sans-serif" font-size="13" lengthAdjust="spacing" textLength="236" x="311.5" y="303.1606">Demande formulaire enregistrement</text><polygon fill="#A80036" points="315.5,333.3594,305.5,337.3594,315.5,341.3594,311.5,337.3594" style="stroke:#A80036;stroke-width:1.0;"/><line style="stroke:#A80036;stroke-width:1.0;" x1="309.5" x2="564.5" y1="337.3594" y2="337.3594"/><text fill="#000000" font-family="sans-serif" font-size="13" lengthAdjust="spacing" textLength="232" x="321.5" y="332.2935">Retourne formulaire enregistrement</text><polygon fill="#A80036" points="49.5,362.4922,39.5,366.4922,49.5,370.4922,45.5,366.4922" style="stroke:#A80036;stroke-width:1.0;"/><line style="stroke:#A80036;stroke-width:1.0;" x1="43.5" x2="298.5" y1="366.4922" y2="366.4922"/><text fill="#000000" font-family="sans-serif" font-size="13" lengthAdjust="spacing" textLength="232" x="55.5" y="361.4263">Retourne formulaire enregistrement</text><polygon fill="#A80036" points="282.5,391.625,292.5,395.625,282.5,399.625,286.5,395.625" style="stroke:#A80036;stroke-width:1.0;"/><line style="stroke:#A80036;stroke-width:1.0;" x1="38.5" x2="288.5" y1="395.625" y2="395.625"/><text fill="#000000" font-family="sans-serif" font-size="13" lengthAdjust="spacing" textLength="143" x="45.5" y="390.5591">Soumission formulaire</text><polygon fill="#A80036" points="548.5,420.7578,558.5,424.7578,548.5,428.7578,552.5,424.7578" style="stroke:#A80036;stroke-width:1.0;"/><line style="stroke:#A80036;stroke-width:1.0;" x1="304.5" x2="554.5" y1="424.7578" y2="424.7578"/><text fill="#000000" font-family="sans-serif" font-size="13" lengthAdjust="spacing" textLength="225" x="311.5" y="419.6919">Soumission informations utilisateur</text><polygon fill="#A80036" points="799.5,449.8906,809.5,453.8906,799.5,457.8906,803.5,453.8906" style="stroke:#A80036;stroke-width:1.0;"/><line style="stroke:#A80036;stroke-width:1.0;" x1="570.5" x2="805.5" y1="453.8906" y2="453.8906"/><text fill="#000000" font-family="sans-serif" font-size="13" lengthAdjust="spacing" textLength="135" x="577.5" y="448.8247">Recherche utilisateur</text><path d="M10,468.8906 L76,468.8906 L76,475.8906 L66,485.8906 L10,485.8906 L10,468.8906 " fill="#EEEEEE" style="stroke:#000000;stroke-width:1.0;"/><rect fill="none" height="482.9297" style="stroke:#000000;stroke-width:2.0;" width="1208" x="10" y="468.8906"/><text fill="#000000" font-family="sans-serif" font-size="13" font-weight="bold" lengthAdjust="spacing" textLength="21" x="25" y="481.9575">alt</text><text fill="#000000" font-family="sans-serif" font-size="11" font-weight="bold" lengthAdjust="spacing" textLength="142" x="91" y="481.1011">[Utilisateur existant]</text><polygon fill="#A80036" points="581.5,503.1563,571.5,507.1563,581.5,511.1563,577.5,507.1563" style="stroke:#A80036;stroke-width:1.0;"/><line style="stroke:#A80036;stroke-width:1.0;" x1="575.5" x2="815.5" y1="507.1563" y2="507.1563"/><text fill="#000000" font-family="sans-serif" font-size="13" lengthAdjust="spacing" textLength="120" x="587.5" y="502.0903">Utilisateur existant</text><line style="stroke:#A80036;stroke-width:2.0;" x1="807.5" x2="825.5" y1="498.1563" y2="516.1563"/><line style="stroke:#A80036;stroke-width:2.0;" x1="807.5" x2="825.5" y1="516.1563" y2="498.1563"/><polygon fill="#A80036" points="315.5,532.2891,305.5,536.2891,315.5,540.2891,311.5,536.2891" style="stroke:#A80036;stroke-width:1.0;"/><line style="stroke:#A80036;stroke-width:1.0;" x1="309.5" x2="564.5" y1="536.2891" y2="536.2891"/><text fill="#000000" font-family="sans-serif" font-size="13" lengthAdjust="spacing" textLength="120" x="321.5" y="531.2231">Utilisateur existant</text><line style="stroke:#A80036;stroke-width:2.0;" x1="556.5" x2="574.5" y1="527.2891" y2="545.2891"/><line style="stroke:#A80036;stroke-width:2.0;" x1="556.5" x2="574.5" y1="545.2891" y2="527.2891"/><polygon fill="#A80036" points="49.5,561.4219,39.5,565.4219,49.5,569.4219,45.5,565.4219" style="stroke:#A80036;stroke-width:1.0;"/><line style="stroke:#A80036;stroke-width:1.0;" x1="43.5" x2="298.5" y1="565.4219" y2="565.4219"/><text fill="#000000" font-family="sans-serif" font-size="13" lengthAdjust="spacing" textLength="120" x="55.5" y="560.356">Utilisateur existant</text><line style="stroke:#A80036;stroke-width:2.0;" x1="290.5" x2="308.5" y1="556.4219" y2="574.4219"/><line style="stroke:#A80036;stroke-width:2.0;" x1="290.5" x2="308.5" y1="574.4219" y2="556.4219"/><line style="stroke:#000000;stroke-width:1.0;stroke-dasharray:2.0,2.0;" x1="10" x2="1218" y1="574.4219" y2="574.4219"/><text fill="#000000" font-family="sans-serif" font-size="11" font-weight="bold" lengthAdjust="spacing" textLength="171" x="15" y="584.6323">[Utilisateur non existant]</text><polygon fill="#A80036" points="581.5,605.3594,571.5,609.3594,581.5,613.3594,577.5,609.3594" style="stroke:#A80036;stroke-width:1.0;"/><line style="stroke:#A80036;stroke-width:1.0;" x1="575.5" x2="815.5" y1="609.3594" y2="609.3594"/><text fill="#000000" font-family="sans-serif" font-size="13" lengthAdjust="spacing" textLength="148" x="587.5" y="604.2935">Utilisateur non existant</text><polygon fill="#A80036" points="882,634.4922,892,638.4922,882,642.4922,886,638.4922" style="stroke:#A80036;stroke-width:1.0;"/><line style="stroke:#A80036;stroke-width:1.0;" x1="570.5" x2="888" y1="638.4922" y2="638.4922"/><text fill="#000000" font-family="sans-serif" font-size="13" lengthAdjust="spacing" textLength="233" x="577.5" y="633.4263">Demande enregistrement utilisateur</text><polygon fill="#A80036" points="1145,663.625,1155,667.625,1145,671.625,1149,667.625" style="stroke:#A80036;stroke-width:1.0;"/><line style="stroke:#A80036;stroke-width:1.0;" x1="904" x2="1151" y1="667.625" y2="667.625"/><text fill="#000000" font-family="sans-serif" font-size="13" lengthAdjust="spacing" textLength="141" x="911" y="662.5591">Persistance utilisateur</text><polygon fill="#A80036" points="915,692.7578,905,696.7578,915,700.7578,911,696.7578" style="stroke:#A80036;stroke-width:1.0;"/><line style="stroke:#A80036;stroke-width:1.0;" x1="909" x2="1161" y1="696.7578" y2="696.7578"/><text fill="#000000" font-family="sans-serif" font-size="13" lengthAdjust="spacing" textLength="229" x="921" y="691.6919">Retourne enregistrement utilisateur</text><polygon fill="#A80036" points="581.5,721.8906,571.5,725.8906,581.5,729.8906,577.5,725.8906" style="stroke:#A80036;stroke-width:1.0;"/><line style="stroke:#A80036;stroke-width:1.0;" x1="575.5" x2="898" y1="725.8906" y2="725.8906"/><text fill="#000000" font-family="sans-serif" font-size="13" lengthAdjust="spacing" textLength="211" x="587.5" y="720.8247">Retourne informations utilisateur</text><polygon fill="#A80036" points="799.5,751.0234,809.5,755.0234,799.5,759.0234,803.5,755.0234" style="stroke:#A80036;stroke-width:1.0;"/><line style="stroke:#A80036;stroke-width:1.0;" x1="570.5" x2="805.5" y1="755.0234" y2="755.0234"/><text fill="#000000" font-family="sans-serif" font-size="13" lengthAdjust="spacing" textLength="110" x="577.5" y="749.9575">Persistance profil</text><polygon fill="#A80036" points="581.5,780.1563,571.5,784.1563,581.5,788.1563,577.5,784.1563" style="stroke:#A80036;stroke-width:1.0;"/><line style="stroke:#A80036;stroke-width:1.0;" x1="575.5" x2="815.5" y1="784.1563" y2="784.1563"/><text fill="#000000" font-family="sans-serif" font-size="13" lengthAdjust="spacing" textLength="95" x="587.5" y="779.0903">Retourne profil</text><rect fill="#EEEEEE" filter="url(#f1wm3q31zrih5f)" height="3" style="stroke:#EEEEEE;stroke-width:1.0;" width="1228" x="0" y="812.7227"/><line style="stroke:#000000;stroke-width:1.0;" x1="0" x2="1228" y1="812.7227" y2="812.7227"/><line style="stroke:#000000;stroke-width:1.0;" x1="0" x2="1228" y1="815.7227" y2="815.7227"/><rect fill="#EEEEEE" filter="url(#f1wm3q31zrih5f)" height="23.1328" style="stroke:#000000;stroke-width:2.0;" width="143" x="542.5" y="802.1563"/><text fill="#000000" font-family="sans-serif" font-size="13" font-weight="bold" lengthAdjust="spacing" textLength="129" x="548.5" y="818.2231">Création compte</text><polygon fill="#A80036" points="799.5,852.4219,809.5,856.4219,799.5,860.4219,803.5,856.4219" style="stroke:#A80036;stroke-width:1.0;"/><line style="stroke:#A80036;stroke-width:1.0;" x1="570.5" x2="805.5" y1="856.4219" y2="856.4219"/><text fill="#000000" font-family="sans-serif" font-size="13" lengthAdjust="spacing" textLength="222" x="577.5" y="851.356">Persistance compte basé sur profil</text><polygon fill="#A80036" points="581.5,881.5547,571.5,885.5547,581.5,889.5547,577.5,885.5547" style="stroke:#A80036;stroke-width:1.0;"/><line style="stroke:#A80036;stroke-width:1.0;" x1="575.5" x2="815.5" y1="885.5547" y2="885.5547"/><text fill="#000000" font-family="sans-serif" font-size="13" lengthAdjust="spacing" textLength="215" x="587.5" y="880.4888">Retourne enregistrement compte</text><polygon fill="#A80036" points="315.5,910.6875,305.5,914.6875,315.5,918.6875,311.5,914.6875" style="stroke:#A80036;stroke-width:1.0;"/><line style="stroke:#A80036;stroke-width:1.0;" x1="309.5" x2="564.5" y1="914.6875" y2="914.6875"/><text fill="#000000" font-family="sans-serif" font-size="13" lengthAdjust="spacing" textLength="215" x="321.5" y="909.6216">Retourne enregistrement compte</text><polygon fill="#A80036" points="49.5,939.8203,39.5,943.8203,49.5,947.8203,45.5,943.8203" style="stroke:#A80036;stroke-width:1.0;"/><line style="stroke:#A80036;stroke-width:1.0;" x1="43.5" x2="298.5" y1="943.8203" y2="943.8203"/><text fill="#000000" font-family="sans-serif" font-size="13" lengthAdjust="spacing" textLength="221" x="55.5" y="938.7544">Redirige vers page accueil compte</text><!--MD5=[eb70204a70a2ff827bd4d22cba58644f]
@startuml
skinparam backgroundColor #DDDDDD
hide footbox
actor User
collections FlexupApp
control FlexupAPI
database FlexupDB
entity Keycloak
database KeycloakDB
==Création utilisateur==
User -> FlexupApp : Demande accès application
activate FlexupApp
FlexupApp -> FlexupAPI : Demande formulaire connexion
activate FlexupAPI
FlexupAPI -> FlexupApp : Retourne formulaire connexion
deactivate FlexupAPI
FlexupApp -> User : Retourne formulaire connexion
deactivate FlexupApp
User -> FlexupApp : Demande formulaire enregistrement
activate FlexupApp
FlexupApp -> FlexupAPI : Demande formulaire enregistrement
activate FlexupAPI
FlexupAPI -> FlexupApp : Retourne formulaire enregistrement
deactivate FlexupAPI
FlexupApp -> User : Retourne formulaire enregistrement
deactivate FlexupApp
User -> FlexupApp : Soumission formulaire
activate FlexupApp
FlexupApp -> FlexupAPI : Soumission informations utilisateur
activate FlexupAPI
FlexupAPI -> FlexupDB : Recherche utilisateur
alt Utilisateur existant
activate FlexupDB
FlexupDB -> FlexupAPI : Utilisateur existant
destroy FlexupDB
FlexupAPI -> FlexupApp : Utilisateur existant
destroy FlexupAPI
FlexupApp -> User : Utilisateur existant
destroy FlexupApp
else Utilisateur non existant
activate FlexupDB
FlexupDB -> FlexupAPI : Utilisateur non existant
deactivate FlexupDB
activate FlexupAPI
FlexupAPI -> Keycloak : Demande enregistrement utilisateur
activate Keycloak
Keycloak -> KeycloakDB : Persistance utilisateur
activate KeycloakDB
KeycloakDB -> Keycloak : Retourne enregistrement utilisateur
deactivate KeycloakDB
Keycloak -> FlexupAPI : Retourne informations utilisateur
deactivate Keycloak
FlexupAPI -> FlexupDB : Persistance profil
activate FlexupDB
FlexupDB -> FlexupAPI : Retourne profil
deactivate FlexupDB
==Création compte==
FlexupAPI -> FlexupDB : Persistance compte basé sur profil
activate FlexupDB
FlexupDB -> FlexupAPI : Retourne enregistrement compte
deactivate FlexupDB
FlexupAPI -> FlexupApp : Retourne enregistrement compte
deactivate FlexupAPI
activate FlexupApp
FlexupApp -> User : Redirige vers page accueil compte
deactivate FlexupApp
end
@enduml

PlantUML version 1.2021.6beta6(Unknown compile time)
(GPL source distribution)
Java Runtime: Java(TM) SE Runtime Environment
JVM: Java HotSpot(TM) 64-Bit Server VM
Default Encoding: UTF-8
Language: en
Country: US
--></g></svg>