<?xml version="1.0" encoding="UTF-8" standalone="no"?><svg xmlns="http://www.w3.org/2000/svg" xmlns:xlink="http://www.w3.org/1999/xlink" contentScriptType="application/ecmascript" contentStyleType="text/css" height="638px" preserveAspectRatio="none" style="width:1224px;height:638px;background:#DDDDDD;" version="1.1" viewBox="0 0 1224 638" width="1224px" zoomAndPan="magnify"><defs><filter height="300%" id="f80deq6f0zaxh" width="300%" x="-1" y="-1"><feGaussianBlur result="blurOut" stdDeviation="2.0"/><feColorMatrix in="blurOut" result="blurOut2" type="matrix" values="0 0 0 0 0 0 0 0 0 0 0 0 0 0 0 0 0 0 .4 0"/><feOffset dx="4.0" dy="4.0" in="blurOut2" result="blurOut3"/><feBlend in="SourceGraphic" in2="blurOut3" mode="normal"/></filter></defs><g><rect fill="#FFFFFF" filter="url(#f80deq6f0zaxh)" height="29.1328" style="stroke:#A80036;stroke-width:1.0;" width="10" x="317.5" y="162.5625"/><rect fill="#FFFFFF" filter="url(#f80deq6f0zaxh)" height="247.0625" style="stroke:#A80036;stroke-width:1.0;" width="10" x="317.5" y="366.4922"/><rect fill="#FFFFFF" filter="url(#f80deq6f0zaxh)" height="87.3984" style="stroke:#A80036;stroke-width:1.0;" width="10" x="566.5" y="497.0234"/><rect fill="#FFFFFF" filter="url(#f80deq6f0zaxh)" height="29.1328" style="stroke:#A80036;stroke-width:1.0;" width="10" x="815.5" y="526.1563"/><rect fill="#FFFFFF" filter="url(#f80deq6f0zaxh)" height="29.1328" style="stroke:#A80036;stroke-width:1.0;" width="10" x="898" y="220.8281"/><rect fill="#FFFFFF" filter="url(#f80deq6f0zaxh)" height="87.3984" style="stroke:#A80036;stroke-width:1.0;" width="10" x="898" y="279.0938"/><rect fill="#FFFFFF" filter="url(#f80deq6f0zaxh)" height="29.1328" style="stroke:#A80036;stroke-width:1.0;" width="10" x="1161" y="308.2266"/><line style="stroke:#A80036;stroke-width:1.0;stroke-dasharray:5.0,5.0;" x1="23" x2="23" y1="88.2969" y2="631.5547"/><line style="stroke:#A80036;stroke-width:1.0;stroke-dasharray:5.0,5.0;" x1="322" x2="322" y1="88.2969" y2="631.5547"/><line style="stroke:#A80036;stroke-width:1.0;stroke-dasharray:5.0,5.0;" x1="571.5" x2="571.5" y1="88.2969" y2="631.5547"/><line style="stroke:#A80036;stroke-width:1.0;stroke-dasharray:5.0,5.0;" x1="820.5" x2="820.5" y1="88.2969" y2="631.5547"/><line style="stroke:#A80036;stroke-width:1.0;stroke-dasharray:5.0,5.0;" x1="902.5" x2="902.5" y1="88.2969" y2="631.5547"/><line style="stroke:#A80036;stroke-width:1.0;stroke-dasharray:5.0,5.0;" x1="1166" x2="1166" y1="88.2969" y2="631.5547"/><text fill="#000000" font-family="sans-serif" font-size="14" lengthAdjust="spacing" textLength="31" x="5" y="84.9951">User</text><ellipse cx="23.5" cy="15" fill="#FEFECE" filter="url(#f80deq6f0zaxh)" rx="8" ry="8" style="stroke:#A80036;stroke-width:2.0;"/><path d="M23.5,23 L23.5,50 M10.5,31 L36.5,31 M23.5,50 L10.5,65 M23.5,50 L36.5,65 " fill="none" filter="url(#f80deq6f0zaxh)" style="stroke:#A80036;stroke-width:2.0;"/><rect fill="#FEFECE" filter="url(#f80deq6f0zaxh)" height="30.2969" style="stroke:#A80036;stroke-width:1.5;" width="91" x="277" y="49"/><rect fill="#FEFECE" filter="url(#f80deq6f0zaxh)" height="30.2969" style="stroke:#A80036;stroke-width:1.5;" width="91" x="273" y="53"/><text fill="#000000" font-family="sans-serif" font-size="14" lengthAdjust="spacing" textLength="77" x="280" y="72.9951">FlexupApp</text><text fill="#000000" font-family="sans-serif" font-size="14" lengthAdjust="spacing" textLength="70" x="533.5" y="84.9951">FlexupAPI</text><ellipse cx="571.5" cy="56" fill="#FEFECE" filter="url(#f80deq6f0zaxh)" rx="12" ry="12" style="stroke:#A80036;stroke-width:2.0;"/><polygon fill="#A80036" points="567.5,44,573.5,39,571.5,44,573.5,49,567.5,44" style="stroke:#A80036;stroke-width:1.0;"/><text fill="#000000" font-family="sans-serif" font-size="14" lengthAdjust="spacing" textLength="68" x="783.5" y="84.9951">FlexupDB</text><path d="M802.5,36 C802.5,26 820.5,26 820.5,26 C820.5,26 838.5,26 838.5,36 L838.5,62 C838.5,72 820.5,72 820.5,72 C820.5,72 802.5,72 802.5,62 L802.5,36 " fill="#FEFECE" filter="url(#f80deq6f0zaxh)" style="stroke:#000000;stroke-width:1.5;"/><path d="M802.5,36 C802.5,46 820.5,46 820.5,46 C820.5,46 838.5,46 838.5,36 " fill="none" style="stroke:#000000;stroke-width:1.5;"/><text fill="#000000" font-family="sans-serif" font-size="14" lengthAdjust="spacing" textLength="65" x="867.5" y="84.9951">Keycloak</text><ellipse cx="903" cy="56" fill="#FEFECE" filter="url(#f80deq6f0zaxh)" rx="12" ry="12" style="stroke:#A80036;stroke-width:2.0;"/><line style="stroke:#A80036;stroke-width:2.0;" x1="891" x2="915" y1="70" y2="70"/><text fill="#000000" font-family="sans-serif" font-size="14" lengthAdjust="spacing" textLength="86" x="1120" y="84.9951">KeycloakDB</text><path d="M1148,36 C1148,26 1166,26 1166,26 C1166,26 1184,26 1184,36 L1184,62 C1184,72 1166,72 1166,72 C1166,72 1148,72 1148,62 L1148,36 " fill="#FEFECE" filter="url(#f80deq6f0zaxh)" style="stroke:#000000;stroke-width:1.5;"/><path d="M1148,36 C1148,46 1166,46 1166,46 C1166,46 1184,46 1184,36 " fill="none" style="stroke:#000000;stroke-width:1.5;"/><rect fill="#FFFFFF" filter="url(#f80deq6f0zaxh)" height="29.1328" style="stroke:#A80036;stroke-width:1.0;" width="10" x="317.5" y="162.5625"/><rect fill="#FFFFFF" filter="url(#f80deq6f0zaxh)" height="247.0625" style="stroke:#A80036;stroke-width:1.0;" width="10" x="317.5" y="366.4922"/><rect fill="#FFFFFF" filter="url(#f80deq6f0zaxh)" height="87.3984" style="stroke:#A80036;stroke-width:1.0;" width="10" x="566.5" y="497.0234"/><rect fill="#FFFFFF" filter="url(#f80deq6f0zaxh)" height="29.1328" style="stroke:#A80036;stroke-width:1.0;" width="10" x="815.5" y="526.1563"/><rect fill="#FFFFFF" filter="url(#f80deq6f0zaxh)" height="29.1328" style="stroke:#A80036;stroke-width:1.0;" width="10" x="898" y="220.8281"/><rect fill="#FFFFFF" filter="url(#f80deq6f0zaxh)" height="87.3984" style="stroke:#A80036;stroke-width:1.0;" width="10" x="898" y="279.0938"/><rect fill="#FFFFFF" filter="url(#f80deq6f0zaxh)" height="29.1328" style="stroke:#A80036;stroke-width:1.0;" width="10" x="1161" y="308.2266"/><rect fill="#EEEEEE" filter="url(#f80deq6f0zaxh)" height="3" style="stroke:#EEEEEE;stroke-width:1.0;" width="1217" x="0" y="118.8633"/><line style="stroke:#000000;stroke-width:1.0;" x1="0" x2="1217" y1="118.8633" y2="118.8633"/><line style="stroke:#000000;stroke-width:1.0;" x1="0" x2="1217" y1="121.8633" y2="121.8633"/><rect fill="#EEEEEE" filter="url(#f80deq6f0zaxh)" height="23.1328" style="stroke:#000000;stroke-width:2.0;" width="164" x="526.5" y="108.2969"/><text fill="#000000" font-family="sans-serif" font-size="13" font-weight="bold" lengthAdjust="spacing" textLength="150" x="532.5" y="124.3638">Création utilisateur</text><polygon fill="#A80036" points="305.5,158.5625,315.5,162.5625,305.5,166.5625,309.5,162.5625" style="stroke:#A80036;stroke-width:1.0;"/><line style="stroke:#A80036;stroke-width:1.0;" x1="23.5" x2="311.5" y1="162.5625" y2="162.5625"/><text fill="#000000" font-family="sans-serif" font-size="13" lengthAdjust="spacing" textLength="177" x="30.5" y="157.4966">Demande accès application</text><polygon fill="#A80036" points="34.5,187.6953,24.5,191.6953,34.5,195.6953,30.5,191.6953" style="stroke:#A80036;stroke-width:1.0;"/><line style="stroke:#A80036;stroke-width:1.0;" x1="28.5" x2="321.5" y1="191.6953" y2="191.6953"/><text fill="#000000" font-family="sans-serif" font-size="13" lengthAdjust="spacing" textLength="270" x="40.5" y="186.6294">Redirige vers page de connexion keycloak</text><polygon fill="#A80036" points="886,216.8281,896,220.8281,886,224.8281,890,220.8281" style="stroke:#A80036;stroke-width:1.0;"/><line style="stroke:#A80036;stroke-width:1.0;" x1="23.5" x2="892" y1="220.8281" y2="220.8281"/><text fill="#000000" font-family="sans-serif" font-size="13" lengthAdjust="spacing" textLength="236" x="30.5" y="215.7622">Demande formulaire enregistrement</text><polygon fill="#A80036" points="34.5,245.9609,24.5,249.9609,34.5,253.9609,30.5,249.9609" style="stroke:#A80036;stroke-width:1.0;"/><line style="stroke:#A80036;stroke-width:1.0;" x1="28.5" x2="902" y1="249.9609" y2="249.9609"/><text fill="#000000" font-family="sans-serif" font-size="13" lengthAdjust="spacing" textLength="232" x="40.5" y="244.895">Retourne formulaire enregistrement</text><polygon fill="#A80036" points="886,275.0938,896,279.0938,886,283.0938,890,279.0938" style="stroke:#A80036;stroke-width:1.0;"/><line style="stroke:#A80036;stroke-width:1.0;" x1="23.5" x2="892" y1="279.0938" y2="279.0938"/><text fill="#000000" font-family="sans-serif" font-size="13" lengthAdjust="spacing" textLength="143" x="30.5" y="274.0278">Soumission formulaire</text><polygon fill="#A80036" points="1149,304.2266,1159,308.2266,1149,312.2266,1153,308.2266" style="stroke:#A80036;stroke-width:1.0;"/><line style="stroke:#A80036;stroke-width:1.0;" x1="908" x2="1155" y1="308.2266" y2="308.2266"/><text fill="#000000" font-family="sans-serif" font-size="13" lengthAdjust="spacing" textLength="141" x="915" y="303.1606">Persistance utilisateur</text><polygon fill="#A80036" points="919,333.3594,909,337.3594,919,341.3594,915,337.3594" style="stroke:#A80036;stroke-width:1.0;"/><line style="stroke:#A80036;stroke-width:1.0;" x1="913" x2="1165" y1="337.3594" y2="337.3594"/><text fill="#000000" font-family="sans-serif" font-size="13" lengthAdjust="spacing" textLength="229" x="925" y="332.2935">Retourne enregistrement utilisateur</text><polygon fill="#A80036" points="338.5,362.4922,328.5,366.4922,338.5,370.4922,334.5,366.4922" style="stroke:#A80036;stroke-width:1.0;"/><line style="stroke:#A80036;stroke-width:1.0;" x1="332.5" x2="902" y1="366.4922" y2="366.4922"/><text fill="#000000" font-family="sans-serif" font-size="13" lengthAdjust="spacing" textLength="211" x="344.5" y="361.4263">Retourne informations utilisateur</text><rect fill="#EEEEEE" filter="url(#f80deq6f0zaxh)" height="3" style="stroke:#EEEEEE;stroke-width:1.0;" width="1217" x="0" y="395.0586"/><line style="stroke:#000000;stroke-width:1.0;" x1="0" x2="1217" y1="395.0586" y2="395.0586"/><line style="stroke:#000000;stroke-width:1.0;" x1="0" x2="1217" y1="398.0586" y2="398.0586"/><rect fill="#EEEEEE" filter="url(#f80deq6f0zaxh)" height="23.1328" style="stroke:#000000;stroke-width:2.0;" width="143" x="537" y="384.4922"/><text fill="#000000" font-family="sans-serif" font-size="13" font-weight="bold" lengthAdjust="spacing" textLength="129" x="543" y="400.5591">Création compte</text><polygon fill="#A80036" points="34.5,434.7578,24.5,438.7578,34.5,442.7578,30.5,438.7578" style="stroke:#A80036;stroke-width:1.0;"/><line style="stroke:#A80036;stroke-width:1.0;" x1="28.5" x2="316.5" y1="438.7578" y2="438.7578"/><text fill="#000000" font-family="sans-serif" font-size="13" lengthAdjust="spacing" textLength="193" x="40.5" y="433.6919">Redirige vers création compte</text><polygon fill="#A80036" points="305.5,463.8906,315.5,467.8906,305.5,471.8906,309.5,467.8906" style="stroke:#A80036;stroke-width:1.0;"/><line style="stroke:#A80036;stroke-width:1.0;" x1="23.5" x2="311.5" y1="467.8906" y2="467.8906"/><text fill="#000000" font-family="sans-serif" font-size="13" lengthAdjust="spacing" textLength="143" x="30.5" y="462.8247">Soumission formulaire</text><polygon fill="#A80036" points="554.5,493.0234,564.5,497.0234,554.5,501.0234,558.5,497.0234" style="stroke:#A80036;stroke-width:1.0;"/><line style="stroke:#A80036;stroke-width:1.0;" x1="327.5" x2="560.5" y1="497.0234" y2="497.0234"/><text fill="#000000" font-family="sans-serif" font-size="13" lengthAdjust="spacing" textLength="204" x="334.5" y="491.9575">Soumission information compte</text><polygon fill="#A80036" points="803.5,522.1563,813.5,526.1563,803.5,530.1563,807.5,526.1563" style="stroke:#A80036;stroke-width:1.0;"/><line style="stroke:#A80036;stroke-width:1.0;" x1="576.5" x2="809.5" y1="526.1563" y2="526.1563"/><text fill="#000000" font-family="sans-serif" font-size="13" lengthAdjust="spacing" textLength="127" x="583.5" y="521.0903">Persistance compte</text><polygon fill="#A80036" points="587.5,551.2891,577.5,555.2891,587.5,559.2891,583.5,555.2891" style="stroke:#A80036;stroke-width:1.0;"/><line style="stroke:#A80036;stroke-width:1.0;" x1="581.5" x2="819.5" y1="555.2891" y2="555.2891"/><text fill="#000000" font-family="sans-serif" font-size="13" lengthAdjust="spacing" textLength="215" x="593.5" y="550.2231">Retourne enregistrement compte</text><polygon fill="#A80036" points="338.5,580.4219,328.5,584.4219,338.5,588.4219,334.5,584.4219" style="stroke:#A80036;stroke-width:1.0;"/><line style="stroke:#A80036;stroke-width:1.0;" x1="332.5" x2="570.5" y1="584.4219" y2="584.4219"/><text fill="#000000" font-family="sans-serif" font-size="13" lengthAdjust="spacing" textLength="215" x="344.5" y="579.356">Retourne enregistrement compte</text><polygon fill="#A80036" points="34.5,609.5547,24.5,613.5547,34.5,617.5547,30.5,613.5547" style="stroke:#A80036;stroke-width:1.0;"/><line style="stroke:#A80036;stroke-width:1.0;" x1="28.5" x2="321.5" y1="613.5547" y2="613.5547"/><text fill="#000000" font-family="sans-serif" font-size="13" lengthAdjust="spacing" textLength="221" x="40.5" y="608.4888">Redirige vers page accueil compte</text><!--MD5=[1dd00ad9ab2a8250024a29576bbbc102]
@startuml
skinparam backgroundColor #DDDDDD
hide footbox
actor User
collections FlexupApp
control FlexupAPI
database FlexupDB
entity Keycloak
database KeycloakDB
==Création utilisateur==
User -> FlexupApp : Demande accès application
activate FlexupApp
FlexupApp -> User : Redirige vers page de connexion keycloak
deactivate FlexupApp
User -> Keycloak : Demande formulaire enregistrement
activate Keycloak
Keycloak -> User : Retourne formulaire enregistrement
deactivate Keycloak
User -> Keycloak : Soumission formulaire
activate Keycloak
Keycloak -> KeycloakDB : Persistance utilisateur
activate KeycloakDB
KeycloakDB -> Keycloak : Retourne enregistrement utilisateur
deactivate KeycloakDB
Keycloak -> FlexupApp : Retourne informations utilisateur
deactivate Keycloak
==Création compte==
activate FlexupApp
FlexupApp -> User : Redirige vers création compte
User -> FlexupApp : Soumission formulaire
FlexupApp -> FlexupAPI : Soumission information compte
activate FlexupAPI
FlexupAPI -> FlexupDB : Persistance compte
activate FlexupDB
FlexupDB -> FlexupAPI : Retourne enregistrement compte
deactivate FlexupDB
FlexupAPI -> FlexupApp : Retourne enregistrement compte
deactivate FlexupAPI
FlexupApp -> User : Redirige vers page accueil compte
deactivate FlexupApp
@enduml

PlantUML version 1.2021.6beta6(Unknown compile time)
(GPL source distribution)
Java Runtime: Java(TM) SE Runtime Environment
JVM: Java HotSpot(TM) 64-Bit Server VM
Default Encoding: UTF-8
Language: en
Country: US
--></g></svg>