<?xml version="1.0" encoding="UTF-8" standalone="no"?><svg xmlns="http://www.w3.org/2000/svg" xmlns:xlink="http://www.w3.org/1999/xlink" contentScriptType="application/ecmascript" contentStyleType="text/css" height="309px" preserveAspectRatio="none" style="width:311px;height:309px;" version="1.1" viewBox="0 0 311 309" width="311px" zoomAndPan="magnify"><defs><filter height="300%" id="f1hb7fe7sdovy7" width="300%" x="-1" y="-1"><feGaussianBlur result="blurOut" stdDeviation="2.0"/><feColorMatrix in="blurOut" result="blurOut2" type="matrix" values="0 0 0 0 0 0 0 0 0 0 0 0 0 0 0 0 0 0 .4 0"/><feOffset dx="4.0" dy="4.0" in="blurOut2" result="blurOut3"/><feBlend in="SourceGraphic" in2="blurOut3" mode="normal"/></filter></defs><g><line style="stroke:#A80036;stroke-width:1.0;stroke-dasharray:5.0,5.0;" x1="25" x2="25" y1="88.2969" y2="224.8281"/><line style="stroke:#A80036;stroke-width:1.0;stroke-dasharray:5.0,5.0;" x1="130" x2="130" y1="88.2969" y2="224.8281"/><line style="stroke:#A80036;stroke-width:1.0;stroke-dasharray:5.0,5.0;" x1="185" x2="185" y1="88.2969" y2="224.8281"/><line style="stroke:#A80036;stroke-width:1.0;stroke-dasharray:5.0,5.0;" x1="236" x2="236" y1="88.2969" y2="224.8281"/><line style="stroke:#A80036;stroke-width:1.0;stroke-dasharray:5.0,5.0;" x1="286" x2="286" y1="88.2969" y2="224.8281"/><text fill="#000000" font-family="sans-serif" font-size="14" lengthAdjust="spacing" textLength="35" x="5" y="84.9951">Foo1</text><ellipse cx="25.5" cy="15" fill="#FEFECE" filter="url(#f1hb7fe7sdovy7)" rx="8" ry="8" style="stroke:#A80036;stroke-width:2.0;"/><path d="M25.5,23 L25.5,50 M12.5,31 L38.5,31 M25.5,50 L12.5,65 M25.5,50 L38.5,65 " fill="none" filter="url(#f1hb7fe7sdovy7)" style="stroke:#A80036;stroke-width:2.0;"/><text fill="#000000" font-family="sans-serif" font-size="14" lengthAdjust="spacing" textLength="35" x="5" y="236.8232">Foo1</text><ellipse cx="25.5" cy="250.125" fill="#FEFECE" filter="url(#f1hb7fe7sdovy7)" rx="8" ry="8" style="stroke:#A80036;stroke-width:2.0;"/><path d="M25.5,258.125 L25.5,285.125 M12.5,266.125 L38.5,266.125 M25.5,285.125 L12.5,300.125 M25.5,285.125 L38.5,300.125 " fill="none" filter="url(#f1hb7fe7sdovy7)" style="stroke:#A80036;stroke-width:2.0;"/><text fill="#000000" font-family="sans-serif" font-size="14" lengthAdjust="spacing" textLength="34" x="110.5" y="84.9951">Foo2</text><path d="M110,44 L110,68 M110,56 L127,56 " fill="none" filter="url(#f1hb7fe7sdovy7)" style="stroke:#A80036;stroke-width:2.0;"/><ellipse cx="139" cy="56" fill="#FEFECE" filter="url(#f1hb7fe7sdovy7)" rx="12" ry="12" style="stroke:#A80036;stroke-width:2.0;"/><text fill="#000000" font-family="sans-serif" font-size="14" lengthAdjust="spacing" textLength="34" x="110.5" y="236.8232">Foo2</text><path d="M110,244.125 L110,268.125 M110,256.125 L127,256.125 " fill="none" filter="url(#f1hb7fe7sdovy7)" style="stroke:#A80036;stroke-width:2.0;"/><ellipse cx="139" cy="256.125" fill="#FEFECE" filter="url(#f1hb7fe7sdovy7)" rx="12" ry="12" style="stroke:#A80036;stroke-width:2.0;"/><text fill="#000000" font-family="sans-serif" font-size="14" lengthAdjust="spacing" textLength="35" x="165" y="84.9951">Foo3</text><ellipse cx="185.5" cy="56" fill="#FEFECE" filter="url(#f1hb7fe7sdovy7)" rx="12" ry="12" style="stroke:#A80036;stroke-width:2.0;"/><polygon fill="#A80036" points="181.5,44,187.5,39,185.5,44,187.5,49,181.5,44" style="stroke:#A80036;stroke-width:1.0;"/><text fill="#000000" font-family="sans-serif" font-size="14" lengthAdjust="spacing" textLength="35" x="165" y="236.8232">Foo3</text><ellipse cx="185.5" cy="256.125" fill="#FEFECE" filter="url(#f1hb7fe7sdovy7)" rx="12" ry="12" style="stroke:#A80036;stroke-width:2.0;"/><polygon fill="#A80036" points="181.5,244.125,187.5,239.125,185.5,244.125,187.5,249.125,181.5,244.125" style="stroke:#A80036;stroke-width:1.0;"/><text fill="#000000" font-family="sans-serif" font-size="14" lengthAdjust="spacing" textLength="34" x="216" y="84.9951">Foo4</text><ellipse cx="236" cy="56" fill="#FEFECE" filter="url(#f1hb7fe7sdovy7)" rx="12" ry="12" style="stroke:#A80036;stroke-width:2.0;"/><line style="stroke:#A80036;stroke-width:2.0;" x1="224" x2="248" y1="70" y2="70"/><text fill="#000000" font-family="sans-serif" font-size="14" lengthAdjust="spacing" textLength="34" x="216" y="236.8232">Foo4</text><ellipse cx="236" cy="256.125" fill="#FEFECE" filter="url(#f1hb7fe7sdovy7)" rx="12" ry="12" style="stroke:#A80036;stroke-width:2.0;"/><line style="stroke:#A80036;stroke-width:2.0;" x1="224" x2="248" y1="270.125" y2="270.125"/><text fill="#000000" font-family="sans-serif" font-size="14" lengthAdjust="spacing" textLength="35" x="266" y="84.9951">Foo5</text><path d="M268.5,36 C268.5,26 286.5,26 286.5,26 C286.5,26 304.5,26 304.5,36 L304.5,62 C304.5,72 286.5,72 286.5,72 C286.5,72 268.5,72 268.5,62 L268.5,36 " fill="#FEFECE" filter="url(#f1hb7fe7sdovy7)" style="stroke:#000000;stroke-width:1.5;"/><path d="M268.5,36 C268.5,46 286.5,46 286.5,46 C286.5,46 304.5,46 304.5,36 " fill="none" style="stroke:#000000;stroke-width:1.5;"/><text fill="#000000" font-family="sans-serif" font-size="14" lengthAdjust="spacing" textLength="35" x="266" y="236.8232">Foo5</text><path d="M268.5,250.125 C268.5,240.125 286.5,240.125 286.5,240.125 C286.5,240.125 304.5,240.125 304.5,250.125 L304.5,276.125 C304.5,286.125 286.5,286.125 286.5,286.125 C286.5,286.125 268.5,286.125 268.5,276.125 L268.5,250.125 " fill="#FEFECE" filter="url(#f1hb7fe7sdovy7)" style="stroke:#000000;stroke-width:1.5;"/><path d="M268.5,250.125 C268.5,260.125 286.5,260.125 286.5,260.125 C286.5,260.125 304.5,260.125 304.5,250.125 " fill="none" style="stroke:#000000;stroke-width:1.5;"/><polygon fill="#A80036" points="118.5,115.4297,128.5,119.4297,118.5,123.4297,122.5,119.4297" style="stroke:#A80036;stroke-width:1.0;"/><line style="stroke:#A80036;stroke-width:1.0;" x1="25.5" x2="124.5" y1="119.4297" y2="119.4297"/><text fill="#000000" font-family="sans-serif" font-size="13" lengthAdjust="spacing" textLength="81" x="32.5" y="114.3638">To boundary</text><polygon fill="#A80036" points="173.5,144.5625,183.5,148.5625,173.5,152.5625,177.5,148.5625" style="stroke:#A80036;stroke-width:1.0;"/><line style="stroke:#A80036;stroke-width:1.0;" x1="25.5" x2="179.5" y1="148.5625" y2="148.5625"/><text fill="#000000" font-family="sans-serif" font-size="13" lengthAdjust="spacing" textLength="64" x="32.5" y="143.4966">To control</text><polygon fill="#A80036" points="224,173.6953,234,177.6953,224,181.6953,228,177.6953" style="stroke:#A80036;stroke-width:1.0;"/><line style="stroke:#A80036;stroke-width:1.0;" x1="25.5" x2="230" y1="177.6953" y2="177.6953"/><text fill="#000000" font-family="sans-serif" font-size="13" lengthAdjust="spacing" textLength="57" x="32.5" y="172.6294">To entity</text><polygon fill="#A80036" points="274.5,202.8281,284.5,206.8281,274.5,210.8281,278.5,206.8281" style="stroke:#A80036;stroke-width:1.0;"/><line style="stroke:#A80036;stroke-width:1.0;" x1="25.5" x2="280.5" y1="206.8281" y2="206.8281"/><text fill="#000000" font-family="sans-serif" font-size="13" lengthAdjust="spacing" textLength="80" x="32.5" y="201.7622">To database</text><!--MD5=[91b6bf64c38322c8fb3e81f7b0190cfa]
@startuml
actor Foo1
boundary Foo2
control Foo3
entity Foo4
database Foo5
Foo1 -> Foo2 : To boundary
Foo1 -> Foo3 : To control
Foo1 -> Foo4 : To entity
Foo1 -> Foo5 : To database
@enduml

PlantUML version 1.2021.6beta4(Unknown compile time)
(GPL source distribution)
Java Runtime: Java(TM) SE Runtime Environment
JVM: Java HotSpot(TM) 64-Bit Server VM
Default Encoding: UTF-8
Language: en
Country: US
--></g></svg>